<?xml version="1.0" encoding="UTF-8"?>
<svg width="14px" height="12px" viewBox="0 0 14 12" version="1.1" xmlns="http://www.w3.org/2000/svg" xmlns:xlink="http://www.w3.org/1999/xlink">
    <!-- Generator: Sketch 46.2 (44496) - http://www.bohemiancoding.com/sketch -->
    <title>twitter</title>
    <desc>Created with Sketch.</desc>
    <defs></defs>
    <g id="Redesign" stroke="none" stroke-width="1" fill="none" fill-rule="evenodd">
        <g id="Player-Hover" transform="translate(-724.000000, -310.000000)" fill="#FEFEFE">
            <path d="M736.568465,312.811466 C736.57284,312.932725 736.575341,313.05711 736.575341,313.181494 C736.575341,316.947408 733.686994,321.289617 728.402838,321.289617 C726.780213,321.289617 725.270723,320.820206 724,320.009519 C724.225017,320.035771 724.45316,320.050147 724.684428,320.050147 C726.031406,320.050147 727.268376,319.595112 728.252202,318.830053 C726.99648,318.805676 725.935774,317.981863 725.570121,316.849276 C725.744509,316.883654 725.923273,316.90053 726.110162,316.90053 C726.370182,316.90053 726.625202,316.866777 726.86647,316.801147 C725.552619,316.540502 724.561293,315.388539 724.561293,314.007183 C724.561293,313.995307 724.561293,313.982806 724.563793,313.970305 C724.948823,314.184696 725.393857,314.311581 725.865143,314.325957 C725.094459,313.816543 724.58567,312.942726 724.58567,311.9539 C724.58567,311.43261 724.728806,310.943197 724.973825,310.52129 C726.389558,312.246423 728.507846,313.380885 730.893654,313.500269 C730.844276,313.290878 730.819899,313.074611 730.819899,312.850219 C730.819899,311.276348 732.105622,310 733.691369,310 C734.518933,310 735.264615,310.346277 735.787155,310.898194 C736.44283,310.771934 737.059128,310.535666 737.61417,310.207516 C737.397279,310.874442 736.943494,311.43261 736.349073,311.785137 C736.931618,311.717632 737.486661,311.56387 737.9992,311.338228 C737.616671,311.907646 737.127883,312.408935 736.568465,312.811466" id="twitter"></path>
        </g>
    </g>
</svg>